<svg width="20" height="20" viewBox="0 0 20 20" fill="none" xmlns="http://www.w3.org/2000/svg">
<rect width="20" height="20" fill="#F1F5F9"/>
<path d="M15.0306 13.9695C15.1715 14.1104 15.2506 14.3015 15.2506 14.5007C15.2506 14.7 15.1715 14.8911 15.0306 15.032C14.8897 15.1729 14.6986 15.252 14.4993 15.252C14.3001 15.252 14.109 15.1729 13.9681 15.032L9.99997 11.0626L6.0306 15.0307C5.8897 15.1716 5.69861 15.2508 5.49935 15.2508C5.30009 15.2508 5.10899 15.1716 4.9681 15.0307C4.8272 14.8898 4.74805 14.6987 4.74805 14.4995C4.74805 14.3002 4.8272 14.1091 4.9681 13.9682L8.93747 10.0001L4.96935 6.03073C4.82845 5.88984 4.7493 5.69874 4.7493 5.49948C4.7493 5.30023 4.82845 5.10913 4.96935 4.96823C5.11024 4.82734 5.30134 4.74818 5.5006 4.74818C5.69986 4.74818 5.89095 4.82734 6.03185 4.96823L9.99997 8.93761L13.9693 4.96761C14.1102 4.82671 14.3013 4.74756 14.5006 4.74756C14.6999 4.74756 14.891 4.82671 15.0318 4.96761C15.1727 5.10851 15.2519 5.2996 15.2519 5.49886C15.2519 5.69812 15.1727 5.88921 15.0318 6.03011L11.0625 10.0001L15.0306 13.9695Z" fill="#60A5FA"/>
</svg>
